<svg width="160" height="40" viewBox="0 0 160 40" fill="none" xmlns="http://www.w3.org/2000/svg">
<path d="M19.476 13.512C19.308 15.216 19.224 16.752 19.224 18.12C19.224 19.32 19.26 20.304 19.332 21.072H18.504C18.312 19.224 18.072 17.856 17.784 16.968C17.496 16.056 16.992 15.396 16.272 14.988C15.552 14.556 14.448 14.34 12.96 14.34H10.692C9.828 14.34 9.192 14.412 8.784 14.556C8.4 14.676 8.136 14.94 7.992 15.348C7.848 15.756 7.776 16.416 7.776 17.328V26.184H10.404C11.244 26.184 11.892 25.992 12.348 25.608C12.804 25.2 13.104 24.732 13.248 24.204C13.416 23.652 13.548 22.968 13.644 22.152L13.752 21.432H14.58C14.508 22.44 14.472 23.568 14.472 24.816V26.544C14.472 27.768 14.544 29.472 14.688 31.656H13.86C13.836 31.488 13.764 30.912 13.644 29.928C13.524 28.92 13.188 28.164 12.636 27.66C12.108 27.156 11.364 26.904 10.404 26.904H7.776V35.184C7.776 36.096 7.872 36.756 8.064 37.164C8.256 37.572 8.592 37.848 9.072 37.992C9.552 38.136 10.332 38.232 11.412 38.28V39C10.164 38.928 8.4 38.892 6.12 38.892C4.056 38.892 2.52 38.928 1.512 39V38.28C2.376 38.232 3 38.136 3.384 37.992C3.792 37.848 4.068 37.572 4.212 37.164C4.356 36.756 4.428 36.096 4.428 35.184V17.328C4.428 16.416 4.356 15.756 4.212 15.348C4.068 14.94 3.792 14.664 3.384 14.52C3 14.376 2.376 14.28 1.512 14.232V13.512C3.864 13.584 7.344 13.62 11.952 13.62C15.48 13.62 17.988 13.584 19.476 13.512ZM48.5761 37.2C48.0241 38.016 47.4721 38.604 46.9201 38.964C46.3681 39.324 45.6361 39.504 44.7241 39.504C43.7401 39.504 42.9241 39.216 42.2761 38.64C41.6521 38.064 41.1841 37.056 40.8721 35.616L40.0801 32.016C39.7921 30.768 39.5161 29.808 39.2521 29.136C39.0121 28.464 38.6401 27.924 38.1361 27.516C37.6321 27.108 36.9241 26.904 36.0121 26.904H32.5921V35.184C32.5921 36.096 32.6641 36.756 32.8081 37.164C32.9521 37.572 33.2161 37.848 33.6001 37.992C34.0081 38.136 34.6441 38.232 35.5081 38.28V39C34.4041 38.928 32.8801 38.892 30.9361 38.892C28.8721 38.892 27.3361 38.928 26.3281 39V38.28C27.1921 38.232 27.8161 38.136 28.2001 37.992C28.6081 37.848 28.8841 37.572 29.0281 37.164C29.1721 36.756 29.2441 36.096 29.2441 35.184V17.328C29.2441 16.416 29.1721 15.756 29.0281 15.348C28.8841 14.94 28.6081 14.664 28.2001 14.52C27.8161 14.376 27.1921 14.28 26.3281 14.232V13.512C27.3361 13.584 28.8001 13.62 30.7201 13.62L34.6081 13.584C35.0641 13.56 35.5801 13.548 36.1561 13.548C38.9401 13.548 41.0761 14.136 42.5641 15.312C44.0761 16.464 44.8321 17.964 44.8321 19.812C44.8321 20.748 44.6041 21.696 44.1481 22.656C43.7161 23.592 42.9721 24.444 41.9161 25.212C40.8841 25.956 39.5281 26.46 37.8481 26.724L38.2801 26.796C39.8641 27.06 41.0161 27.54 41.7361 28.236C42.4561 28.932 42.9841 30.036 43.3201 31.548L44.2201 35.22C44.4601 36.324 44.7121 37.092 44.9761 37.524C45.2401 37.956 45.6001 38.172 46.0561 38.172C46.4641 38.172 46.8001 38.064 47.0641 37.848C47.3521 37.632 47.6761 37.284 48.0361 36.804L48.5761 37.2ZM35.2561 14.232C34.5121 14.232 33.9481 14.316 33.5641 14.484C33.2041 14.652 32.9521 14.952 32.8081 15.384C32.6641 15.816 32.5921 16.464 32.5921 17.328V26.184H35.0041C37.3801 26.184 39.0121 25.656 39.9001 24.6C40.7881 23.544 41.2321 22.08 41.2321 20.208C41.2321 18.24 40.7641 16.752 39.8281 15.744C38.8921 14.736 37.3681 14.232 35.2561 14.232ZM72.8918 35.976C73.4678 37.464 74.2958 38.232 75.3758 38.28V39C74.4158 38.928 73.1318 38.892 71.5238 38.892C69.4598 38.892 67.9238 38.928 66.9158 39V38.28C67.8278 38.232 68.4758 38.124 68.8598 37.956C69.2678 37.764 69.4718 37.428 69.4718 36.948C69.4718 36.54 69.3278 35.976 69.0398 35.256L66.8438 29.352H58.1318L56.6558 33.168C56.1758 34.464 55.9358 35.448 55.9358 36.12C55.9358 36.864 56.1878 37.404 56.6918 37.74C57.2198 38.076 58.0118 38.256 59.0678 38.28V39C57.6998 38.928 56.3198 38.892 54.9278 38.892C53.8478 38.892 52.9478 38.928 52.2278 39V38.28C53.4278 37.992 54.3758 36.948 55.0718 35.148L63.5318 13.332H64.1078L72.8918 35.976ZM66.5558 28.632L62.5238 17.868L58.4198 28.632H66.5558ZM108.617 14.232C107.753 14.28 107.117 14.376 106.708 14.52C106.325 14.664 106.061 14.94 105.916 15.348C105.772 15.756 105.701 16.416 105.701 17.328V35.184C105.701 36.096 105.772 36.756 105.916 37.164C106.061 37.572 106.325 37.848 106.708 37.992C107.117 38.136 107.753 38.232 108.617 38.28V39C107.513 38.928 105.989 38.892 104.044 38.892C101.981 38.892 100.445 38.928 99.4365 39V38.28C100.3 38.232 100.924 38.136 101.309 37.992C101.716 37.848 101.992 37.572 102.137 37.164C102.281 36.756 102.353 36.096 102.353 35.184V15.888L93.6765 39.18H93.1005L84.0285 15.816V34.824C84.0285 35.76 84.1005 36.456 84.2445 36.912C84.4125 37.368 84.7245 37.704 85.1805 37.92C85.6365 38.112 86.3445 38.232 87.3045 38.28V39C86.4405 38.928 85.2165 38.892 83.6325 38.892C82.1925 38.892 81.0765 38.928 80.2845 39V38.28C81.1245 38.232 81.7485 38.112 82.1565 37.92C82.5645 37.704 82.8405 37.368 82.9845 36.912C83.1285 36.432 83.2005 35.736 83.2005 34.824V17.328C83.2005 16.416 83.1285 15.756 82.9845 15.348C82.8405 14.94 82.5645 14.664 82.1565 14.52C81.7725 14.376 81.1485 14.28 80.2845 14.232V13.512C81.0765 13.584 82.1925 13.62 83.6325 13.62C84.8805 13.62 85.9005 13.584 86.6925 13.512L94.6125 34.356L102.353 13.62H104.044C105.989 13.62 107.513 13.584 108.617 13.512V14.232ZM134.396 34.392C134.396 35.76 134.48 37.296 134.648 39C133.016 38.928 130.268 38.892 126.404 38.892C121.796 38.892 118.316 38.928 115.964 39V38.28C116.828 38.232 117.452 38.136 117.836 37.992C118.244 37.848 118.52 37.572 118.664 37.164C118.808 36.756 118.88 36.096 118.88 35.184V17.328C118.88 16.416 118.808 15.756 118.664 15.348C118.52 14.94 118.244 14.664 117.836 14.52C117.452 14.376 116.828 14.28 115.964 14.232V13.512C118.316 13.584 121.796 13.62 126.404 13.62C129.932 13.62 132.44 13.584 133.928 13.512C133.76 15.096 133.676 16.512 133.676 17.76C133.676 18.696 133.712 19.44 133.784 19.992H132.956C132.788 18.432 132.572 17.28 132.308 16.536C132.044 15.768 131.6 15.216 130.976 14.88C130.352 14.52 129.404 14.34 128.132 14.34H125.144C124.28 14.34 123.644 14.412 123.236 14.556C122.852 14.676 122.588 14.94 122.444 15.348C122.3 15.756 122.228 16.416 122.228 17.328V25.824H124.604C125.444 25.824 126.092 25.632 126.548 25.248C127.004 24.84 127.304 24.372 127.448 23.844C127.616 23.292 127.748 22.608 127.844 21.792L127.952 21.072H128.78C128.708 22.08 128.672 23.208 128.672 24.456V26.184C128.672 27.408 128.744 29.112 128.888 31.296H128.06C128.036 31.128 127.964 30.552 127.844 29.568C127.724 28.56 127.388 27.804 126.836 27.3C126.308 26.796 125.564 26.544 124.604 26.544H122.228V35.184C122.228 36.096 122.3 36.756 122.444 37.164C122.588 37.572 122.852 37.848 123.236 37.992C123.644 38.112 124.28 38.172 125.144 38.172H127.772C129.26 38.172 130.388 37.98 131.156 37.596C131.948 37.188 132.524 36.552 132.884 35.688C133.244 34.8 133.508 33.504 133.676 31.8H134.504C134.432 32.448 134.396 33.312 134.396 34.392Z" fill="black"/>
</svg>
